<svg width="80" height="79" viewBox="0 0 80 79" fill="none" xmlns="http://www.w3.org/2000/svg">
<mask id="path-1-outside-1_117_32" maskUnits="userSpaceOnUse" x="-6.67145" y="-6.74581" width="92.694" height="91.9316" fill="black">
<rect fill="white" x="-6.67145" y="-6.74581" width="92.694" height="91.9316"/>
<path d="M24.4931 71.0693L30.8615 48.9701L9.33486 57.4206L4.57334 42.0466L26.9506 36.6364L8.89603 22.3521L19.6584 10.3854L35.6673 27.0744L39.1394 4.33953L54.7213 7.75953L48.295 29.846L69.8216 21.3955L74.5831 36.7695L52.2638 42.1924L70.2605 56.464L59.498 68.4307L43.4892 51.7417L40.075 74.4893L24.4931 71.0693Z"/>
</mask>
<path d="M24.4931 71.0693L21.0339 70.0724L19.9706 73.7623L23.7214 74.5856L24.4931 71.0693ZM30.8615 48.9701L34.3207 49.967L36.3425 42.951L29.546 45.6191L30.8615 48.9701ZM9.33486 57.4206L5.89601 58.4856L7.04264 62.1879L10.6503 60.7716L9.33486 57.4206ZM4.57334 42.0466L3.72734 38.5474L-3.80817e-06 39.4486L1.1345 43.1117L4.57334 42.0466ZM26.9506 36.6364L27.7966 40.1356L34.9802 38.3988L29.1842 33.8132L26.9506 36.6364ZM8.89603 22.3521L6.21932 19.9447L3.65502 22.796L6.66234 25.1753L8.89603 22.3521ZM19.6584 10.3854L22.2564 7.89329L19.5735 5.09633L16.9817 7.97804L19.6584 10.3854ZM35.6673 27.0744L33.0693 29.5665L38.1237 34.8356L39.226 27.6179L35.6673 27.0744ZM39.1394 4.33952L39.9112 0.823227L36.1604 -2.02093e-05L35.5807 3.79603L39.1394 4.33952ZM54.7213 7.75953L58.1779 8.76528L59.2535 5.0686L55.493 4.24323L54.7213 7.75953ZM48.295 29.846L44.8383 28.8403L42.7919 35.8738L49.6105 33.197L48.295 29.846ZM69.8216 21.3955L73.2605 20.3305L72.1138 16.6282L68.5061 18.0445L69.8216 21.3955ZM74.5831 36.7695L75.4331 40.2677L79.1552 39.3634L78.022 35.7044L74.5831 36.7695ZM52.2638 42.1924L51.4139 38.6941L44.2528 40.4341L50.027 45.0131L52.2638 42.1924ZM70.2605 56.464L72.9372 58.8714L75.4985 56.0234L72.4973 53.6433L70.2605 56.464ZM59.498 68.4307L56.9001 70.9228L59.583 73.7198L62.1747 70.8381L59.498 68.4307ZM43.4892 51.7417L46.0872 49.2496L41.0163 43.9633L39.929 51.2074L43.4892 51.7417ZM40.075 74.4893L39.3032 78.0056L43.0637 78.831L43.6351 75.0236L40.075 74.4893ZM24.4931 71.0693L27.9524 72.0661L34.3207 49.967L30.8615 48.9701L27.4023 47.9733L21.0339 70.0724L24.4931 71.0693ZM30.8615 48.9701L29.546 45.6191L8.01938 54.0695L9.33486 57.4206L10.6503 60.7716L32.177 52.3211L30.8615 48.9701ZM9.33486 57.4206L12.7737 56.3555L8.01219 40.9816L4.57334 42.0466L1.1345 43.1117L5.89601 58.4856L9.33486 57.4206ZM4.57334 42.0466L5.41935 45.5458L27.7966 40.1356L26.9506 36.6364L26.1046 33.1373L3.72734 38.5474L4.57334 42.0466ZM26.9506 36.6364L29.1842 33.8132L11.1297 19.5288L8.89603 22.3521L6.66234 25.1753L24.7169 39.4597L26.9506 36.6364ZM8.89603 22.3521L11.5727 24.7594L22.3352 12.7927L19.6584 10.3854L16.9817 7.97804L6.21932 19.9447L8.89603 22.3521ZM19.6584 10.3854L17.0605 12.8775L33.0693 29.5665L35.6673 27.0744L38.2653 24.5823L22.2564 7.89329L19.6584 10.3854ZM35.6673 27.0744L39.226 27.6179L42.6982 4.88302L39.1394 4.33952L35.5807 3.79603L32.1086 26.5309L35.6673 27.0744ZM39.1394 4.33952L38.3676 7.85583L53.9495 11.2758L54.7213 7.75953L55.493 4.24323L39.9112 0.823227L39.1394 4.33952ZM54.7213 7.75953L51.2646 6.75378L44.8383 28.8403L48.295 29.846L51.7516 30.8518L58.1779 8.76528L54.7213 7.75953ZM48.295 29.846L49.6105 33.197L71.1371 24.7466L69.8216 21.3955L68.5061 18.0445L46.9795 26.495L48.295 29.846ZM69.8216 21.3955L66.3828 22.4606L71.1443 37.8345L74.5831 36.7695L78.022 35.7044L73.2605 20.3305L69.8216 21.3955ZM74.5831 36.7695L73.7332 33.2713L51.4139 38.6941L52.2638 42.1924L53.1138 45.6906L75.4331 40.2677L74.5831 36.7695ZM52.2638 42.1924L50.027 45.0131L68.0236 59.2847L70.2605 56.464L72.4973 53.6433L54.5007 39.3717L52.2638 42.1924ZM70.2605 56.464L67.5837 54.0567L56.8213 66.0234L59.498 68.4307L62.1747 70.8381L72.9372 58.8714L70.2605 56.464ZM59.498 68.4307L62.096 65.9386L46.0872 49.2496L43.4892 51.7417L40.8912 54.2338L56.9001 70.9228L59.498 68.4307ZM43.4892 51.7417L39.929 51.2074L36.5149 73.955L40.075 74.4893L43.6351 75.0236L47.0493 52.276L43.4892 51.7417ZM40.075 74.4893L40.8468 70.973L25.2649 67.553L24.4931 71.0693L23.7214 74.5856L39.3032 78.0056L40.075 74.4893Z" fill="#860000" mask="url(#path-1-outside-1_117_32)"/>
</svg>
